<?xml version="1.0" encoding="utf-8"?>
<!-- Generator: Adobe Illustrator 22.0.1, SVG Export Plug-In . SVG Version: 6.00 Build 0)  -->
<svg version="1.1" id="Layer_1" xmlns="http://www.w3.org/2000/svg" xmlns:xlink="http://www.w3.org/1999/xlink" x="0px" y="0px"
	 viewBox="0 0 192 204" style="enable-background:new 0 0 192 204;" xml:space="preserve">
<g>
	<path d="M180,0H12C5.4,0,0,5.4,0,12v180c0,6.6,5.4,12,12,12h168c6.6,0,12-5.4,12-12V12C192,5.4,186.6,0,180,0z M65,163
		c0,6.6-5.4,12-12,12h-6c-6.6,0-12-5.4-12-12V37c0-6.6,5.4-12,12-12h6c6.6,0,12,5.4,12,12V163z M113,163c0,6.6-5.4,12-12,12h-6
		c-6.6,0-12-5.4-12-12V37c0-6.6,5.4-12,12-12h6c6.6,0,12,5.4,12,12V163z M161,163c0,6.6-5.4,12-12,12h-6c-6.6,0-12-5.4-12-12V37
		c0-6.6,5.4-12,12-12h6c6.6,0,12,5.4,12,12V163z"/>
</g>
</svg>
