<?xml version="1.0" encoding="utf-8"?>
<!-- Generator: Adobe Illustrator 22.0.1, SVG Export Plug-In . SVG Version: 6.00 Build 0)  -->
<svg version="1.1" xmlns="http://www.w3.org/2000/svg" xmlns:xlink="http://www.w3.org/1999/xlink" x="0px" y="0px"
	 viewBox="0 0 1728 1296" style="enable-background:new 0 0 1728 1296;" xml:space="preserve">
<style type="text/css">
	.st0{display:none;}
	.st1{display:inline;fill:none;stroke:#000000;stroke-miterlimit:10;}
	.st2{display:inline;}
	.st3{fill:none;stroke:#000000;stroke-miterlimit:10;}
	.st4{fill:none;stroke:#000000;stroke-miterlimit:10;stroke-dasharray:1.0215,3.0645;}
	.st5{fill:none;stroke:#000000;stroke-miterlimit:10;stroke-dasharray:12.258,3.0645,1.0215,3.0645;}
	.st6{fill:none;stroke:#000000;stroke-miterlimit:10;stroke-dasharray:0.9944,2.9831;}
	.st7{fill:none;stroke:#000000;stroke-miterlimit:10;stroke-dasharray:11.9325,2.9831,0.9944,2.9831;}
	.st8{display:inline;fill:none;stroke:#000000;stroke-miterlimit:10;stroke-dasharray:12,3,1,3;}
	.st9{display:inline;fill:none;stroke:#000000;stroke-miterlimit:10;stroke-dasharray:12,6;}
	.st10{fill:none;stroke:#FFFFFF;stroke-miterlimit:10;stroke-dasharray:3,12,3,1;}
	.st11{fill:none;stroke:#ED1C24;stroke-miterlimit:10;}
	.st12{fill:none;stroke:#2E3192;stroke-miterlimit:10;}
	.st13{fill:none;stroke:#2E3192;stroke-miterlimit:10;stroke-dasharray:0.9909,2.9728;}
	.st14{fill:none;stroke:#2E3192;stroke-miterlimit:10;stroke-dasharray:5.9457,2.9728,0.9909,2.9728;}
	.st15{fill:none;stroke:#2E3192;stroke-miterlimit:10;stroke-dasharray:6,3,1,3;}
	.st16{fill:none;stroke:#2E3192;stroke-miterlimit:10;stroke-dasharray:3,3;}
</style>
<g id="Pattern" class="st0">
	<path class="st1" d="M1126.8,903.8h198.4l141.7,141.7h-113.4c0,47-38.1,85-85,85s-85-38.1-85-85H616.6c0,47-38.1,85-85,85
		s-85-38.1-85-85H333.1V903.8h198.4l113.4-113.4h368.5L1126.8,903.8z"/>
	<path class="st1" d="M1126.8,393.6h198.4L1467,251.8h-113.4c0-47-38.1-85-85-85s-85,38.1-85,85H616.6c0-47-38.1-85-85-85
		s-85,38.1-85,85H333.1v141.7h198.4l113.4,113.4h368.5L1126.8,393.6z"/>
	<g class="st2">
		<g>
			<polyline class="st3" points="1013.4,784.4 1013.4,790.4 1007.4,790.4 			"/>
			<line class="st4" x1="1004.4" y1="790.4" x2="1001.8" y2="790.4"/>
			<line class="st5" x1="1000.3" y1="790.4" x2="652.5" y2="790.4"/>
			<polyline class="st3" points="650.9,790.4 644.9,790.4 644.9,784.4 			"/>
			<line class="st6" x1="644.9" y1="781.4" x2="644.9" y2="778.9"/>
			<line class="st7" x1="644.9" y1="777.4" x2="644.9" y2="514.4"/>
			<polyline class="st3" points="644.9,512.9 644.9,506.9 650.9,506.9 			"/>
			<line class="st4" x1="654" y1="506.9" x2="656.6" y2="506.9"/>
			<line class="st5" x1="658.1" y1="506.9" x2="1005.9" y2="506.9"/>
			<polyline class="st3" points="1007.4,506.9 1013.4,506.9 1013.4,512.9 			"/>
			<line class="st6" x1="1013.4" y1="515.9" x2="1013.4" y2="518.4"/>
			<line class="st7" x1="1013.4" y1="519.9" x2="1013.4" y2="782.9"/>
		</g>
	</g>
	<rect x="144.4" y="506.9" class="st1" width="1428.2" height="283.5"/>
	<line class="st8" x1="1372.2" y1="506.9" x2="1372.2" y2="790.4"/>
	<line class="st9" x1="1173.8" y1="506.9" x2="1173.8" y2="790.4"/>
	<line class="st9" x1="484.6" y1="506.9" x2="484.6" y2="790.4"/>
	<line class="st8" x1="286.2" y1="506.9" x2="286.2" y2="790.4"/>
	<g class="st2">
		<line class="st3" x1="1427.5" y1="966" x2="1387.5" y2="966"/>
		<line class="st3" x1="1467.6" y1="1006.1" x2="1427.5" y2="966"/>
		<line class="st3" x1="1467.6" y1="1046.2" x2="1467.6" y2="1006.1"/>
		
			<rect x="1398.4" y="1000.6" transform="matrix(0.7071 0.7071 -0.7071 0.7071 1128.4348 -716.8733)" class="st3" width="62.4" height="6.2"/>
		<line class="st10" x1="1387.5" y1="966" x2="1467.6" y2="1046.2"/>
	</g>
	<g class="st2">
		<line class="st3" x1="1427.5" y1="331.3" x2="1387.5" y2="331.3"/>
		<line class="st3" x1="1467.6" y1="291.2" x2="1427.5" y2="331.3"/>
		<line class="st3" x1="1467.6" y1="251.1" x2="1467.6" y2="291.2"/>
		
			<rect x="1398.4" y="290.5" transform="matrix(0.7071 -0.7071 0.7071 0.7071 211.076 1096.8557)" class="st3" width="62.4" height="6.2"/>
		<line class="st10" x1="1387.5" y1="331.3" x2="1467.6" y2="251.1"/>
	</g>
	<g class="st2">
		<line class="st3" x1="304.8" y1="1017.5" x2="333.1" y2="1045.9"/>
		<line class="st3" x1="304.8" y1="960.8" x2="304.8" y2="1017.5"/>
		<line class="st3" x1="333.1" y1="932.5" x2="304.8" y2="960.8"/>
		
			<rect x="298.8" y="986.3" transform="matrix(6.123234e-17 -1 1 6.123234e-17 -659.4299 1319.443)" class="st3" width="62.4" height="6.2"/>
		<line class="st10" x1="333.1" y1="1045.9" x2="333.1" y2="932.5"/>
	</g>
	<g class="st2">
		<line class="st3" x1="304.8" y1="279.8" x2="333.1" y2="251.5"/>
		<line class="st3" x1="304.8" y1="336.5" x2="304.8" y2="279.8"/>
		<line class="st3" x1="333.1" y1="364.9" x2="304.8" y2="336.5"/>
		
			<rect x="298.8" y="304.8" transform="matrix(-1.836970e-16 1 -1 -1.836970e-16 637.9113 -22.1017)" class="st3" width="62.4" height="6.2"/>
		<line class="st10" x1="333.1" y1="251.5" x2="333.1" y2="364.9"/>
	</g>
	<g class="st2">
		<line class="st3" x1="361.5" y1="875.4" x2="333.1" y2="903.8"/>
		<line class="st3" x1="418.2" y1="875.4" x2="361.5" y2="875.4"/>
		<line class="st3" x1="446.5" y1="903.8" x2="418.2" y2="875.4"/>
		<rect x="358.4" y="897.5" class="st3" width="62.4" height="6.2"/>
		<line class="st10" x1="333.1" y1="903.8" x2="446.5" y2="903.8"/>
	</g>
	<g class="st2">
		<line class="st3" x1="361.5" y1="421.9" x2="333.1" y2="393.6"/>
		<line class="st3" x1="418.2" y1="421.9" x2="361.5" y2="421.9"/>
		<line class="st3" x1="446.5" y1="393.6" x2="418.2" y2="421.9"/>
		<rect x="358.4" y="393.6" class="st3" width="62.4" height="6.2"/>
		<line class="st10" x1="333.1" y1="393.6" x2="446.5" y2="393.6"/>
	</g>
	<g class="st2">
		<line class="st3" x1="1239.8" y1="875.4" x2="1211.4" y2="903.8"/>
		<line class="st3" x1="1296.4" y1="875.4" x2="1239.8" y2="875.4"/>
		<line class="st3" x1="1324.8" y1="903.8" x2="1296.4" y2="875.4"/>
		<rect x="1236.7" y="897.5" class="st3" width="62.4" height="6.2"/>
		<line class="st10" x1="1211.4" y1="903.8" x2="1324.8" y2="903.8"/>
	</g>
	<g class="st2">
		<line class="st3" x1="1239.8" y1="421.9" x2="1211.4" y2="393.6"/>
		<line class="st3" x1="1296.4" y1="421.9" x2="1239.8" y2="421.9"/>
		<line class="st3" x1="1324.8" y1="393.6" x2="1296.4" y2="421.9"/>
		<rect x="1236.7" y="393.6" class="st3" width="62.4" height="6.2"/>
		<line class="st10" x1="1211.4" y1="393.6" x2="1324.8" y2="393.6"/>
	</g>
	<g class="st2">
		<line class="st3" x1="172.8" y1="790.4" x2="229.5" y2="790.4"/>
		<rect x="144.4" y="796.7" class="st3" width="113.4" height="28.3"/>
		<rect x="172.8" y="790.4" class="st3" width="56.7" height="6.3"/>
		<line class="st10" x1="172.8" y1="790.4" x2="229.5" y2="790.4"/>
	</g>
	<g class="st2">
		<line class="st3" x1="172.8" y1="506.9" x2="229.5" y2="506.9"/>
		<rect x="144.4" y="472.3" class="st3" width="113.4" height="28.3"/>
		<rect x="172.8" y="500.7" class="st3" width="56.7" height="6.3"/>
		<line class="st10" x1="172.8" y1="506.9" x2="229.5" y2="506.9"/>
	</g>
	<g class="st2">
		<line class="st3" x1="371.2" y1="790.4" x2="314.5" y2="790.4"/>
		
			<rect x="286.2" y="796.7" transform="matrix(-1 -1.224647e-16 1.224647e-16 -1 685.7201 1621.6522)" class="st3" width="113.4" height="28.3"/>
		
			<rect x="314.5" y="790.4" transform="matrix(-1 -1.224647e-16 1.224647e-16 -1 685.7201 1587.0558)" class="st3" width="56.7" height="6.3"/>
		<line class="st10" x1="371.2" y1="790.4" x2="314.5" y2="790.4"/>
	</g>
	<g class="st2">
		<line class="st3" x1="371.2" y1="506.9" x2="314.5" y2="506.9"/>
		
			<rect x="286.2" y="472.3" transform="matrix(-1 -1.224647e-16 1.224647e-16 -1 685.7201 973.0302)" class="st3" width="113.4" height="28.3"/>
		
			<rect x="314.5" y="500.7" transform="matrix(-1 -1.224647e-16 1.224647e-16 -1 685.7201 1007.6266)" class="st3" width="56.7" height="6.3"/>
		<line class="st10" x1="371.2" y1="506.9" x2="314.5" y2="506.9"/>
	</g>
	<g class="st2">
		<line class="st3" x1="1544.3" y1="790.4" x2="1487.6" y2="790.4"/>
		
			<rect x="1459.3" y="796.7" transform="matrix(-1 -1.224647e-16 1.224647e-16 -1 3031.937 1621.6522)" class="st3" width="113.4" height="28.3"/>
		
			<rect x="1487.6" y="790.4" transform="matrix(-1 -1.224647e-16 1.224647e-16 -1 3031.937 1587.0558)" class="st3" width="56.7" height="6.3"/>
		<line class="st10" x1="1544.3" y1="790.4" x2="1487.6" y2="790.4"/>
	</g>
	<g class="st2">
		<line class="st3" x1="1544.3" y1="506.9" x2="1487.6" y2="506.9"/>
		
			<rect x="1459.3" y="472.3" transform="matrix(-1 -1.224647e-16 1.224647e-16 -1 3031.937 973.0302)" class="st3" width="113.4" height="28.3"/>
		
			<rect x="1487.6" y="500.7" transform="matrix(-1 -1.224647e-16 1.224647e-16 -1 3031.937 1007.6266)" class="st3" width="56.7" height="6.3"/>
		<line class="st10" x1="1544.3" y1="506.9" x2="1487.6" y2="506.9"/>
	</g>
	<g class="st2">
		<line class="st3" x1="1343.9" y1="790.4" x2="1287.2" y2="790.4"/>
		
			<rect x="1258.8" y="796.7" transform="matrix(-1 -1.224647e-16 1.224647e-16 -1 2631.0581 1621.6522)" class="st3" width="113.4" height="28.3"/>
		
			<rect x="1287.2" y="790.4" transform="matrix(-1 -1.224647e-16 1.224647e-16 -1 2631.0581 1587.0558)" class="st3" width="56.7" height="6.3"/>
		<line class="st10" x1="1343.9" y1="790.4" x2="1287.2" y2="790.4"/>
	</g>
	<g class="st2">
		<line class="st3" x1="1343.9" y1="506.9" x2="1287.2" y2="506.9"/>
		
			<rect x="1258.8" y="472.3" transform="matrix(-1 -1.224647e-16 1.224647e-16 -1 2631.0581 973.0302)" class="st3" width="113.4" height="28.3"/>
		
			<rect x="1287.2" y="500.7" transform="matrix(-1 -1.224647e-16 1.224647e-16 -1 2631.0581 1007.6266)" class="st3" width="56.7" height="6.3"/>
		<line class="st10" x1="1343.9" y1="506.9" x2="1287.2" y2="506.9"/>
	</g>
	<circle class="st1" cx="531.8" cy="1045.5" r="85"/>
	<circle class="st1" cx="1268.3" cy="1045.9" r="85"/>
	<circle class="st1" cx="531.8" cy="251.1" r="85"/>
	<circle class="st1" cx="1268.7" cy="251.1" r="85"/>
	<g class="st2">
		<rect x="1112.9" y="790.7" class="st3" width="14.2" height="56.7"/>
		<rect x="1112.9" y="790.7" class="st3" width="14.2" height="34"/>
		<line class="st3" x1="1112.9" y1="810.4" x2="1127.1" y2="824.8"/>
		<line class="st3" x1="1112.9" y1="790.7" x2="1127.1" y2="824.8"/>
		<rect x="1099" y="824.8" class="st3" width="13.9" height="22.7"/>
	</g>
	<g class="st2">
		<rect x="1112.9" y="450.6" class="st3" width="14.2" height="56.7"/>
		<rect x="1112.9" y="473.3" class="st3" width="14.2" height="34"/>
		<line class="st3" x1="1112.9" y1="487.6" x2="1127.1" y2="473.3"/>
		<line class="st3" x1="1112.9" y1="507.3" x2="1127.1" y2="473.3"/>
		<rect x="1099" y="450.6" class="st3" width="13.9" height="22.7"/>
	</g>
	<rect x="1069" y="880.5" class="st1" width="2.8" height="17"/>
	<rect x="1069" y="400.5" class="st1" width="2.8" height="17"/>
</g>
<g id="Cut">
	<path class="st11" d="M144.4,647.8v141.7h28.3v6.3h-28.3v28.3h113.4v-28.3h-28.3v-6.3h85v6.3h-28.3v28.3h113.4v-28.3h-28.3v-6.3
		h273.7L531.6,902.9h-85l-28.3-28.3h-56.7l-28.3,28.3v28.7l-28.3,28.3v56.7l28.3,28.3h113.7v0.3c0,47,38.1,85,85,85s85-38.1,85-85
		v-0.3h566.8v0.3c0,46.6,37.8,84.4,84.4,84.4s84.4-37.8,84.4-84.4v-0.3h115.2v-39.8l-40.1-40.1h-40.1l-91-90.6h-56.7l-28.3,28.3
		h-84.6l-113.4-113.4l99.5-0.3v34H1099v22.7h28.1v-56.4h160.1v6.3h-28.3v28.3h113.4v-28.3h-28.3v-6.3h143.7v6.3h-28.3v28.3h113.4
		v-28.3h-28.3v-6.3h28.3V648.4V648V506.9h-28.3v-6.3h28.3v-28.3h-113.4v28.3h28.3v6.3h-143.7v-6.3h28.3v-28.3h-113.4v28.3h28.3v6.3
		h-160.1v-56.4H1099v22.7h13.9v34l-99.5-0.3l113.4-113.4h84.6l28.3,28.3h56.7l91-90.6h40.1l40.1-40.1v-39.8h-115.2v-0.3
		c0-46.6-37.8-84.4-84.4-84.4s-84.4,37.8-84.4,84.4v0.3H616.9v-0.3c0-47-38.1-85-85-85s-85,38.1-85,85v0.3H333.1l-28.3,28.3v56.7
		l28.3,28.3v28.7l28.3,28.3h56.7l28.3-28.3h85l113.4,113.4H371.2v-6.3h28.3v-28.3H286.2v28.3h28.3v6.3h-85v-6.3h28.3v-28.3H144.4
		v28.3h28.3v6.3h-28.3v141.7"/>
	
		<rect x="1398.4" y="290.5" transform="matrix(0.7071 -0.7071 0.7071 0.7071 211.076 1096.8557)" class="st11" width="62.4" height="6.2"/>
	<rect x="1236.7" y="393.6" class="st11" width="62.4" height="6.2"/>
	<rect x="326.9" y="276.7" class="st11" width="6.2" height="62.4"/>
	<rect x="358.4" y="393.6" class="st11" width="62.4" height="6.2"/>
	
		<rect x="1426.4" y="972.4" transform="matrix(0.7071 -0.7071 0.7071 0.7071 -290.9044 1304.7828)" class="st11" width="6.2" height="62.4"/>
	<rect x="1236.7" y="897.4" class="st11" width="62.4" height="6.2"/>
	<rect x="326.9" y="958.1" class="st11" width="6.2" height="62.4"/>
	<rect x="358.4" y="897.4" class="st11" width="62.4" height="6.2"/>
	<rect x="1069" y="400.5" class="st11" width="2.8" height="17"/>
	<rect x="1069" y="880.5" class="st11" width="2.8" height="17"/>
</g>
<g id="Etch">
	<g>
		<g>
			<line class="st12" x1="1013.4" y1="506.9" x2="1013.4" y2="509.9"/>
			<line class="st13" x1="1013.4" y1="512.9" x2="1013.4" y2="515.4"/>
			<line class="st14" x1="1013.4" y1="516.9" x2="1013.4" y2="785.9"/>
			<line class="st12" x1="1013.4" y1="787.4" x2="1013.4" y2="790.4"/>
		</g>
	</g>
	<line class="st15" x1="1372.2" y1="506.9" x2="1372.2" y2="790.4"/>
	<line class="st15" x1="644.9" y1="506.9" x2="644.9" y2="790.4"/>
	<line class="st15" x1="286.2" y1="506.9" x2="286.2" y2="790.4"/>
	<line class="st15" x1="1287.2" y1="506.9" x2="1343.9" y2="506.9"/>
	<line class="st15" x1="1287.2" y1="789.5" x2="1343.9" y2="789.5"/>
	<line class="st15" x1="1487.6" y1="506.9" x2="1544.3" y2="506.9"/>
	<line class="st15" x1="1487.6" y1="789.5" x2="1544.3" y2="789.5"/>
	<line class="st15" x1="314.5" y1="789.5" x2="371.2" y2="789.5"/>
	<line class="st15" x1="172.8" y1="789.5" x2="229.5" y2="789.5"/>
	<line class="st15" x1="172.8" y1="506.9" x2="229.5" y2="506.9"/>
	<line class="st15" x1="314.5" y1="506.9" x2="371.2" y2="506.9"/>
	<line class="st15" x1="333.1" y1="393.6" x2="446.5" y2="393.6"/>
	<line class="st15" x1="333.1" y1="251.5" x2="333.1" y2="364.9"/>
	<line class="st15" x1="1467.6" y1="251.5" x2="1387.5" y2="331.3"/>
	<line class="st15" x1="1211.4" y1="393.6" x2="1324.9" y2="393.6"/>
	<line class="st15" x1="1211.4" y1="902.9" x2="1325.7" y2="903.6"/>
	<line class="st15" x1="446.5" y1="902.9" x2="333.1" y2="902.9"/>
	<line class="st15" x1="333.1" y1="931.6" x2="333.1" y2="1045"/>
	<line class="st15" x1="1387.5" y1="965.1" x2="1467.6" y2="1045"/>
	<line class="st16" x1="1173.8" y1="506.9" x2="1173.8" y2="790.4"/>
	<line class="st16" x1="484.6" y1="506.9" x2="484.6" y2="790.4"/>
	<line class="st16" x1="1127.1" y1="473.3" x2="1112.9" y2="507.3"/>
	<line class="st16" x1="1112.9" y1="789.2" x2="1127.1" y2="822.3"/>
	<line class="st16" x1="1127.1" y1="473.3" x2="1112.9" y2="487.6"/>
	<line class="st16" x1="1126.8" y1="823.2" x2="1112.9" y2="810.4"/>
	<line class="st16" x1="1112.9" y1="473.3" x2="1127.1" y2="473.3"/>
	<line class="st16" x1="1112.9" y1="823.2" x2="1126.8" y2="823.2"/>
	<line class="st16" x1="1112.9" y1="823.2" x2="1112.9" y2="845.2"/>
	<line class="st16" x1="1112.9" y1="473.3" x2="1112.9" y2="450.6"/>
	<line class="st15" x1="1112.9" y1="789.2" x2="1127.1" y2="789.5"/>
	<line class="st15" x1="1112.9" y1="507.3" x2="1127.1" y2="506.9"/>
	<line class="st15" x1="644.9" y1="790.4" x2="1013.4" y2="790.4"/>
	<line class="st15" x1="644.9" y1="506.9" x2="1013.4" y2="506.9"/>
</g>
</svg>
